<?xml version="1.0" encoding="utf-8"?>
<!-- Generator: Adobe Illustrator 23.0.3, SVG Export Plug-In . SVG Version: 6.00 Build 0)  -->
<svg version="1.1" id="Layer_1" xmlns="http://www.w3.org/2000/svg" xmlns:xlink="http://www.w3.org/1999/xlink" x="0px" y="0px"
	 viewBox="0 0 1366 301" style="enable-background:new 0 0 1366 301;" xml:space="preserve">
<style type="text/css">
	.st0{display:none;}
	.st1{fill:#FFFFFF;}
</style>
<rect class="st0" width="1366" height="301"/>
<g>
	
		<image style="overflow:visible;opacity:0.75;" width="1371" height="273" xlink:href="A27F4EB9.png"  transform="matrix(1 0 0 1 -13 7)">
	</image>
	<g>
		<g>
			<path class="st1" d="M2.4,259.7c0-2.7,1.4-4.1,4.3-4.1c8.5,0,14.1-3.1,16.8-9.2c2.7-6.2,4.1-15.4,4.1-27.7V98.1
				c0-2.7,1.4-4.1,4.1-4.1c2.9,0,4.3,1.4,4.3,4.1v120.7c0,30.2-9.8,45.3-29.3,45.3c-1.1,0-2.1-0.4-3-1.3
				C2.8,261.9,2.4,260.9,2.4,259.7z M26.3,54.3C24.8,52.8,24,51,24,48.9c0-2.1,0.8-3.8,2.3-5.3c1.5-1.4,3.3-2.2,5.4-2.2
				c2.1,0,3.8,0.7,5.3,2.2c1.4,1.4,2.2,3.2,2.2,5.3c0,2.1-0.7,3.9-2.2,5.4c-1.4,1.5-3.2,2.3-5.3,2.3C29.6,56.6,27.8,55.8,26.3,54.3z
				"/>
			<path class="st1" d="M56.9,96.6c0-1.1,0.4-2.1,1.3-2.9c0.9-0.8,2-1.2,3.2-1.2c2.1,0,3.4,0.9,3.8,2.6l34.8,96l34.5-96
				c0.8-1.8,2.1-2.6,3.8-2.6c2.9,0,4.3,1.4,4.3,4.1c0,0.6-0.1,1.1-0.2,1.4l-38.4,106l-4.8,13.2c-1,2.6-2.7,6.8-5.2,12.7
				c-2.5,5.9-4.7,10.4-6.7,13.4c-2,3-4.4,6.4-7.2,10.1c-2.8,3.7-5.8,6.4-9,8c-3.2,1.7-6.6,2.5-10.1,2.5c-1.1,0-2.1-0.4-2.9-1.2
				c-0.8-0.8-1.2-1.8-1.2-2.9c0-2.9,1.2-4.3,3.6-4.3c2.7,0,5.4-0.6,7.9-1.9c2.6-1.3,5-3.5,7.2-6.6c2.2-3.1,4.1-5.9,5.6-8.3
				c1.5-2.4,3.4-6.2,5.5-11.5c2.2-5.3,3.6-9,4.4-11l4.3-12.2l-38.4-106C57,97.4,56.9,96.9,56.9,96.6z"/>
			<path class="st1" d="M165.8,202.9V27c0-2.7,1.4-4.1,4.1-4.1c2.9,0,4.3,1.4,4.3,4.1v175.8c0,1.1-0.4,2.1-1.3,3
				c-0.9,0.9-1.9,1.3-3,1.3c-1.1,0-2.1-0.4-2.9-1.3C166.2,205,165.8,204,165.8,202.9z"/>
			<path class="st1" d="M211.1,202.9V27c0-2.7,1.4-4.1,4.1-4.1c2.9,0,4.3,1.4,4.3,4.1v175.8c0,1.1-0.4,2.1-1.3,3
				c-0.9,0.9-1.9,1.3-3,1.3c-1.1,0-2.1-0.4-2.9-1.3C211.5,205,211.1,204,211.1,202.9z"/>
			<path class="st1" d="M246.4,177c0-12,4.8-20.3,14.3-24.8c9.5-4.6,23.4-6.8,41.6-6.8h13.4v-6.7c0-10.2-2.6-19.1-7.9-26.5
				c-5.3-7.4-13.2-11.2-23.7-11.2c-4.3,0-8.4,0.5-12.1,1.6c-3.8,1-6.7,2.1-8.8,3.2c-2.1,1.1-3.4,1.7-4.1,1.7c-1.3,0-2.3-0.6-3.1-1.7
				c-0.8-1.1-1.2-2.2-1.2-3.1c0-2.4,3.2-4.7,9.5-6.8c6.3-2.2,13.1-3.2,20.3-3.2c13.8,0,23.8,4.4,30.1,13.1c6.3,8.7,9.5,19.7,9.5,33
				v64.3c0,2.9-1.4,4.3-4.1,4.3c-1.3,0-2.3-0.4-3.1-1.2c-0.8-0.8-1.2-1.8-1.2-3.1v-12.5c-10.6,12.2-22.5,18.2-36,18.2
				c-9.9,0-18-2.7-24.1-8C249.4,195.2,246.4,187.4,246.4,177z M254.8,177c0,7.7,2.3,13.5,6.8,17.4c4.6,3.9,10.5,5.9,17.9,5.9
				c8.6,0,16.8-3,24.6-9.1c7.8-6.1,11.6-11.8,11.6-17.3v-20.2h-13.2c-7.2,0-13.2,0.2-18.1,0.7c-4.9,0.5-9.8,1.5-14.8,3
				c-5,1.5-8.7,3.9-11.2,7.2C256,167.9,254.8,172,254.8,177z"/>
			<path class="st1" d="M355.7,202.9V98.1c0-2.7,1.4-4.1,4.1-4.1c2.9,0,4.3,1.4,4.3,4.1v12.7c6.9-12.2,17.6-18.2,32.1-18.2
				c11.8,0,22,4.2,30.5,12.7c8.5,8.5,12.7,18.6,12.7,30.5v67.2c0,2.9-1.4,4.3-4.3,4.3c-2.7,0-4.1-1.4-4.1-4.3v-67.2
				c0-9-3.4-17-10.2-24.1c-6.8-7.1-14.8-10.7-23.9-10.7c-8.6,0-16.3,3.2-22.9,9.6c-6.6,6.4-10,14.8-10,25.2v67.2
				c0,1.1-0.4,2.1-1.3,3c-0.9,0.9-1.9,1.3-3,1.3c-1.1,0-2.1-0.4-2.9-1.3C356.1,205,355.7,204,355.7,202.9z"/>
			<path class="st1" d="M466.8,165v-29.3c0-11.8,4.2-22,12.7-30.5c8.5-8.5,18.6-12.7,30.5-12.7c14.6,0,25.3,6.1,32.1,18.2V27
				c0-2.7,1.4-4.1,4.3-4.1c2.7,0,4.1,1.4,4.1,4.1v175.8c0,1.1-0.4,2.1-1.2,3c-0.8,0.9-1.8,1.3-2.9,1.3c-1.1,0-2.1-0.4-3-1.3
				c-0.9-0.9-1.3-1.9-1.3-3v-12.5c-2.7,5.1-7.1,9.4-13.1,13c-6,3.5-12.5,5.3-19.6,5.3c-11.4,0-21.3-4.4-29.9-13.2
				C471.1,186.7,466.8,176.5,466.8,165z M475.2,165c0,9.1,3.4,17.3,10.2,24.5c6.8,7.2,14.7,10.8,23.6,10.8c8.6,0,16.3-3.2,23-9.5
				c6.7-6.3,10.1-12,10.1-16.9v-38.1c0-10.4-3.3-18.8-10-25.2c-6.6-6.4-14.3-9.6-22.9-9.6c-9.1,0-17.1,3.6-23.9,10.7
				c-6.8,7.1-10.2,15.2-10.2,24.1V165z"/>
			<path class="st1" d="M630.9,173.9V42.6c0-1.1,0.4-2.1,1.3-2.9c0.9-0.8,1.8-1.2,2.8-1.2c1.1,0,2.1,0.4,3,1.2
				c0.9,0.8,1.3,1.8,1.3,2.9V94h32.4c1.1,0,2.1,0.4,2.9,1.3c0.8,0.9,1.2,1.9,1.2,3c0,1.1-0.4,2.1-1.2,2.9c-0.8,0.8-1.8,1.2-2.9,1.2
				h-32.4v71.5c0,9.1,2,15.6,6,19.3c4,3.8,10.9,5.6,20.6,5.6h5.5c1.1,0,2.1,0.4,2.9,1.2c0.8,0.8,1.2,1.8,1.2,2.9
				c0,1.1-0.4,2.1-1.2,3c-0.8,0.9-1.8,1.3-2.9,1.3h-5.5C642.6,207.2,630.9,196.1,630.9,173.9z"/>
			<path class="st1" d="M689.9,165v-30c0-11.5,4.2-21.5,12.6-29.9c8.4-8.4,18.4-12.6,30.1-12.6c11.5,0,21.5,4.1,29.9,12.4
				c8.4,8.2,12.6,18.5,12.6,30.8c0,4.2-0.5,7.5-1.4,10.1c-1,2.6-2.6,4.4-4.8,5.5c-2.2,1.1-4.3,1.8-6.1,2c-1.8,0.2-4.4,0.4-7.6,0.4
				h-56.9V165c0,10.7,3.8,19.3,11.3,25.7c7.5,6.4,17.3,9.6,29.3,9.6c5.9,0,10.9-0.8,14.9-2.5c4-1.7,7-3.3,9-4.9
				c2-1.6,3.5-2.4,4.4-2.4c1.1,0,2.1,0.5,3,1.4c0.9,1,1.3,1.9,1.3,2.9c0,1.6-1.3,3.5-3.8,5.6c-2.6,2.2-6.5,4.1-11.8,5.8
				c-5.3,1.7-11.1,2.5-17.5,2.5c-14.2,0-25.9-4-34.9-12.1C694.4,188.5,689.9,177.9,689.9,165z M698.3,145.3h54
				c5.9,0,9.8-0.6,11.6-1.7c1.8-1.1,2.8-3.5,2.8-7.2c0-9.1-3.2-17.3-9.6-24.6c-6.4-7.3-14.6-10.9-24.5-10.9
				c-9.6,0-17.7,3.4-24.3,10.2c-6.6,6.8-10,14.8-10,23.9V145.3z"/>
			<path class="st1" d="M796.4,165v-29.3c0-11.5,4.2-21.6,12.6-30.2s18.4-13,29.9-13c11.5,0,21.5,4.2,30,12.7
				c8.5,8.5,12.7,18.6,12.7,30.5V165c0,11.5-4.3,21.7-12.8,30.5c-8.6,8.8-18.5,13.2-29.9,13.2c-11.4,0-21.3-4.4-29.7-13.2
				C800.6,186.7,796.4,176.5,796.4,165z M804.8,165c0,9.1,3.4,17.3,10.1,24.5c6.7,7.2,14.7,10.8,24,10.8c9.3,0,17.3-3.6,24.1-10.8
				c6.8-7.2,10.2-15.4,10.2-24.5v-29.3c0-9-3.4-17-10.1-24.1c-6.7-7.1-14.8-10.7-24.2-10.7c-9.4,0-17.5,3.6-24.1,10.7
				c-6.6,7.1-10,15.2-10,24.1V165z"/>
			<path class="st1" d="M905.5,165v-29.3c0-11.8,4.2-22,12.7-30.5c8.5-8.5,18.6-12.7,30.5-12.7c14.6,0,25.3,6.1,32.1,18.2V27
				c0-2.7,1.4-4.1,4.3-4.1c2.7,0,4.1,1.4,4.1,4.1v175.8c0,1.1-0.4,2.1-1.2,3c-0.8,0.9-1.8,1.3-2.9,1.3c-1.1,0-2.1-0.4-3-1.3
				c-0.9-0.9-1.3-1.9-1.3-3v-12.5c-2.7,5.1-7.1,9.4-13.1,13c-6,3.5-12.5,5.3-19.6,5.3c-11.4,0-21.3-4.4-29.9-13.2
				C909.8,186.7,905.5,176.5,905.5,165z M913.9,165c0,9.1,3.4,17.3,10.2,24.5c6.8,7.2,14.7,10.8,23.6,10.8c8.6,0,16.3-3.2,23-9.5
				c6.7-6.3,10.1-12,10.1-16.9v-38.1c0-10.4-3.3-18.8-10-25.2c-6.6-6.4-14.3-9.6-22.9-9.6c-9.1,0-17.1,3.6-23.9,10.7
				c-6.8,7.1-10.2,15.2-10.2,24.1V165z"/>
			<path class="st1" d="M1017.8,165v-29.3c0-11.5,4.2-21.6,12.6-30.2c8.4-8.6,18.4-13,29.9-13c11.5,0,21.5,4.2,30,12.7
				c8.5,8.5,12.7,18.6,12.7,30.5V165c0,11.5-4.3,21.7-12.8,30.5c-8.6,8.8-18.5,13.2-29.9,13.2c-11.4,0-21.3-4.4-29.7-13.2
				C1022,186.7,1017.8,176.5,1017.8,165z M1026.2,165c0,9.1,3.4,17.3,10.1,24.5c6.7,7.2,14.7,10.8,24,10.8c9.3,0,17.3-3.6,24.1-10.8
				c6.8-7.2,10.2-15.4,10.2-24.5v-29.3c0-9-3.4-17-10.1-24.1c-6.7-7.1-14.8-10.7-24.2-10.7c-9.4,0-17.5,3.6-24.1,10.7
				c-6.6,7.1-10,15.2-10,24.1V165z"/>
			<path class="st1" d="M1124.1,193c0-1.1,0.4-2.1,1.1-2.9c0.7-0.8,1.5-1.2,2.3-1.2c0.8,0,2,0.6,3.6,1.9l5,3.8
				c1.9,1.3,4.9,2.5,9,3.7c4.1,1.2,8.7,1.8,13.8,1.8c9.4,0,16.5-1.8,21.1-5.5c4.6-3.7,7-8.5,7-14.4c0-6.9-2.1-12.3-6.2-16.2
				c-4.2-3.9-9.2-6.8-15.1-8.5l-17.8-5.5c-5.9-1.9-11-5-15.1-9.2c-4.2-4.2-6.2-10-6.2-17.2c0-8.2,3-15.4,9.1-21.7
				c6.1-6.3,14.9-9.5,26.4-9.5c7,0,13.7,1.1,19.9,3.4c6.2,2.2,9.4,4.5,9.4,6.7c0,1-0.4,2-1.3,3.1c-0.9,1.1-1.8,1.7-2.8,1.7
				c-0.2,0-2.9-1.1-8.3-3.2c-5.4-2.2-10.9-3.2-16.7-3.2c-9.3,0-16.2,2.3-20.6,7c-4.5,4.7-6.7,9.8-6.7,15.4c0,5.7,2.1,10.3,6.3,13.6
				c4.2,3.3,9.2,5.9,15.1,7.6c5.9,1.7,11.8,3.5,17.8,5.3c6,1.8,11,5.2,15.1,10.2c4.1,5,6.2,11.6,6.2,19.9c0,9-3.2,16-9.6,21.1
				c-6.4,5.1-15.3,7.7-26.6,7.7c-9.9,0-18.2-1.8-24.9-5.3C1127.4,199.8,1124.1,196.4,1124.1,193z"/>
			<path class="st1" d="M1219.4,54.3c-1.5-1.5-2.3-3.3-2.3-5.4c0-2.1,0.8-3.8,2.3-5.3c1.5-1.4,3.3-2.2,5.4-2.2
				c2.1,0,3.8,0.7,5.3,2.2c1.4,1.4,2.2,3.2,2.2,5.3c0,2.1-0.7,3.9-2.2,5.4c-1.4,1.5-3.2,2.3-5.3,2.3
				C1222.7,56.6,1220.9,55.8,1219.4,54.3z M1220.7,202.9V98.1c0-1.1,0.4-2.1,1.2-2.9c0.8-0.8,1.8-1.2,2.9-1.2c2.9,0,4.3,1.4,4.3,4.1
				v104.8c0,1.1-0.4,2.1-1.3,3c-0.9,0.9-1.9,1.3-3,1.3c-1.1,0-2.1-0.4-2.9-1.3C1221.1,205,1220.7,204,1220.7,202.9z"/>
			<path class="st1" d="M1257.4,165v-29.3c0-11.5,4.2-21.6,12.6-30.2c8.4-8.6,18.4-13,29.9-13c11.5,0,21.5,4.2,30,12.7
				c8.5,8.5,12.7,18.6,12.7,30.5V165c0,11.5-4.3,21.7-12.8,30.5c-8.6,8.8-18.5,13.2-29.9,13.2c-11.4,0-21.3-4.4-29.7-13.2
				C1261.7,186.7,1257.4,176.5,1257.4,165z M1265.8,165c0,9.1,3.4,17.3,10.1,24.5c6.7,7.2,14.7,10.8,24,10.8
				c9.3,0,17.3-3.6,24.1-10.8c6.8-7.2,10.2-15.4,10.2-24.5v-29.3c0-9-3.4-17-10.1-24.1c-6.7-7.1-14.8-10.7-24.2-10.7
				c-9.4,0-17.5,3.6-24.1,10.7c-6.6,7.1-10,15.2-10,24.1V165z"/>
		</g>
	</g>
</g>
</svg>
